<svg width="51" height="24" viewBox="0 0 51 24" fill="none" xmlns="http://www.w3.org/2000/svg">
<path d="M13.2601 3.60022L5.0501 12.2902C4.7401 12.6202 4.4401 13.2702 4.3801 13.7202L4.0101 16.9602C3.8801 18.1302 4.7201 18.9302 5.8801 18.7302L9.1001 18.1802C9.5501 18.1002 10.1801 17.7702 10.4901 17.4302L18.7001 8.74022C20.1201 7.24022 20.7601 5.53022 18.5501 3.44022C16.3501 1.37022 14.6801 2.10022 13.2601 3.60022Z" stroke="#2C96A2" stroke-width="1.5" stroke-miterlimit="10" stroke-linecap="round" stroke-linejoin="round"/>
<path d="M11.8899 5.0498C12.3199 7.8098 14.5599 9.9198 17.3399 10.1998" stroke="#2C96A2" stroke-width="1.5" stroke-miterlimit="10" stroke-linecap="round" stroke-linejoin="round"/>
<path d="M3 22H21" stroke="#2C96A2" stroke-width="1.5" stroke-miterlimit="10" stroke-linecap="round" stroke-linejoin="round"/>
<path d="M34.9443 15.0034V16H30.0503V15.0034H34.9443ZM30.2979 6.75781V16H29.0728V6.75781H30.2979ZM34.2969 10.7314V11.728H30.0503V10.7314H34.2969ZM34.8809 6.75781V7.76074H30.0503V6.75781H34.8809ZM40.4858 14.667V6.25H41.6665V16H40.5874L40.4858 14.667ZM35.8647 12.6421V12.5088C35.8647 11.984 35.9282 11.508 36.0552 11.0806C36.1864 10.6489 36.3704 10.2786 36.6074 9.96973C36.8486 9.66081 37.1343 9.42383 37.4644 9.25879C37.7987 9.08952 38.1711 9.00488 38.5815 9.00488C39.0132 9.00488 39.3898 9.08105 39.7114 9.2334C40.0373 9.38151 40.3123 9.59945 40.5366 9.88721C40.7651 10.1707 40.945 10.5135 41.0762 10.9155C41.2074 11.3175 41.2983 11.7725 41.3491 12.2803V12.8643C41.3026 13.3678 41.2116 13.8206 41.0762 14.2227C40.945 14.6247 40.7651 14.9674 40.5366 15.251C40.3123 15.5345 40.0373 15.7524 39.7114 15.9048C39.3856 16.0529 39.0047 16.127 38.5688 16.127C38.1668 16.127 37.7987 16.0402 37.4644 15.8667C37.1343 15.6932 36.8486 15.4499 36.6074 15.1367C36.3704 14.8236 36.1864 14.4554 36.0552 14.0322C35.9282 13.6048 35.8647 13.1414 35.8647 12.6421ZM37.0454 12.5088V12.6421C37.0454 12.9849 37.0793 13.3065 37.147 13.6069C37.2189 13.9074 37.3289 14.1719 37.4771 14.4004C37.6252 14.6289 37.8135 14.8088 38.042 14.9399C38.2705 15.0669 38.5435 15.1304 38.8608 15.1304C39.2502 15.1304 39.5697 15.0479 39.8193 14.8828C40.0732 14.7178 40.2764 14.4998 40.4287 14.229C40.5811 13.9582 40.6995 13.6641 40.7842 13.3467V11.8169C40.7334 11.5841 40.6593 11.3599 40.562 11.144C40.4689 10.924 40.3462 10.7293 40.1938 10.5601C40.0457 10.3866 39.8617 10.249 39.6416 10.1475C39.4258 10.0459 39.1698 9.99512 38.8735 9.99512C38.5519 9.99512 38.2747 10.0628 38.042 10.1982C37.8135 10.3294 37.6252 10.5114 37.4771 10.7441C37.3289 10.9727 37.2189 11.2393 37.147 11.5439C37.0793 11.8444 37.0454 12.166 37.0454 12.5088ZM44.7705 9.13184V16H43.5898V9.13184H44.7705ZM43.501 7.31006C43.501 7.11963 43.5581 6.95882 43.6724 6.82764C43.7909 6.69645 43.9644 6.63086 44.1929 6.63086C44.4172 6.63086 44.5885 6.69645 44.707 6.82764C44.8298 6.95882 44.8911 7.11963 44.8911 7.31006C44.8911 7.49202 44.8298 7.6486 44.707 7.77979C44.5885 7.90674 44.4172 7.97021 44.1929 7.97021C43.9644 7.97021 43.7909 7.90674 43.6724 7.77979C43.5581 7.6486 43.501 7.49202 43.501 7.31006ZM49.5312 9.13184V10.0332H45.8179V9.13184H49.5312ZM47.0747 7.4624H48.249V14.2988C48.249 14.5316 48.285 14.7072 48.3569 14.8257C48.4289 14.9442 48.522 15.0225 48.6362 15.0605C48.7505 15.0986 48.8732 15.1177 49.0044 15.1177C49.1017 15.1177 49.2033 15.1092 49.3091 15.0923C49.4191 15.0711 49.5016 15.0542 49.5566 15.0415L49.563 16C49.4699 16.0296 49.3472 16.0571 49.1948 16.0825C49.0467 16.1121 48.8669 16.127 48.6553 16.127C48.3675 16.127 48.103 16.0698 47.8618 15.9556C47.6206 15.8413 47.4281 15.6509 47.2842 15.3843C47.1445 15.1134 47.0747 14.7495 47.0747 14.2925V7.4624Z" fill="#2C96A2"/>
</svg>
