<svg width="18" height="18" viewBox="0 0 18 18" fill="none" xmlns="http://www.w3.org/2000/svg">
  <path fill-rule="evenodd" clip-rule="evenodd" d="M9.00018 1C9.40132 1 9.79675 1.02971 10.1819 1.08686L10.7625 2.84571C11.271 2.99086 11.7545 3.19771 12.2025 3.45829L13.871 2.65371C14.4619 3.10743 14.9876 3.64229 15.431 4.24114L14.5967 5.89486C14.8493 6.34743 15.0482 6.83429 15.1842 7.34629L16.9327 7.95543C17.0291 8.69486 17.0226 9.44408 16.9133 10.1817L15.1545 10.7623C15.0103 11.2657 14.8046 11.7493 14.5419 12.2023L15.3465 13.8709C14.8921 14.4619 14.3579 14.9869 13.759 15.4309L12.1053 14.5966C11.6478 14.852 11.1603 15.0494 10.6539 15.184L10.0447 16.9326C9.30531 17.0289 8.5561 17.0224 7.81846 16.9131L7.23789 15.1543C6.73451 15.0101 6.25085 14.8044 5.79789 14.5417L4.12932 15.3463C3.5383 14.892 3.01328 14.3577 2.56932 13.7589L3.4036 12.1051C3.14876 11.6474 2.95146 11.1599 2.81618 10.6537L1.0676 10.0434C0.971368 9.30437 0.977907 8.55555 1.08703 7.81829L2.84589 7.23772C2.99103 6.72914 3.19789 6.24572 3.45846 5.79771L2.65389 4.12914C3.10822 3.53812 3.64247 3.0131 4.24132 2.56914L5.89503 3.40343C6.3525 3.14797 6.84009 2.95063 7.34646 2.816L7.95675 1.06743C8.30273 1.02242 8.65127 0.999893 9.00018 1Z" stroke="#CECECE" stroke-width="1.06629" stroke-linecap="round" stroke-linejoin="round"/>
  <path d="M9.00035 12.4284C10.8939 12.4284 12.4289 10.8934 12.4289 8.99986C12.4289 7.10631 10.8939 5.57129 9.00035 5.57129C7.1068 5.57129 5.57178 7.10631 5.57178 8.99986C5.57178 10.8934 7.1068 12.4284 9.00035 12.4284Z" stroke="#CECECE" stroke-width="1.14286" stroke-linecap="round" stroke-linejoin="round"/>
</svg>