<svg width="552" height="46" viewBox="0 0 552 46" fill="none" xmlns="http://www.w3.org/2000/svg">
<rect x="0.625" y="0.625" width="550.75" height="44.75" rx="3.375" stroke="#CECECE" stroke-width="1.25"/>
<path d="M22.0703 16.625V28H20.5547L14.8281 19.2266V28H13.3203V16.625H14.8281L20.5781 25.4219V16.625H22.0703ZM25.9688 21.3516V28H24.5234V19.5469H25.8906L25.9688 21.3516ZM25.625 23.4531L25.0234 23.4297C25.0286 22.8516 25.1146 22.3177 25.2812 21.8281C25.4479 21.3333 25.6823 20.9036 25.9844 20.5391C26.2865 20.1745 26.6458 19.8932 27.0625 19.6953C27.4844 19.4922 27.9505 19.3906 28.4609 19.3906C28.8776 19.3906 29.2526 19.4479 29.5859 19.5625C29.9193 19.6719 30.2031 19.849 30.4375 20.0938C30.6771 20.3385 30.8594 20.6562 30.9844 21.0469C31.1094 21.4323 31.1719 21.9036 31.1719 22.4609V28H29.7188V22.4453C29.7188 22.0026 29.6536 21.6484 29.5234 21.3828C29.3932 21.112 29.2031 20.9167 28.9531 20.7969C28.7031 20.6719 28.3958 20.6094 28.0312 20.6094C27.6719 20.6094 27.3438 20.6849 27.0469 20.8359C26.7552 20.987 26.5026 21.1953 26.2891 21.4609C26.0807 21.7266 25.9167 22.0312 25.7969 22.375C25.6823 22.7135 25.625 23.0729 25.625 23.4531ZM38.3516 26.5547V22.2031C38.3516 21.8698 38.2839 21.5807 38.1484 21.3359C38.0182 21.0859 37.8203 20.8932 37.5547 20.7578C37.2891 20.6224 36.9609 20.5547 36.5703 20.5547C36.2057 20.5547 35.8854 20.6172 35.6094 20.7422C35.3385 20.8672 35.125 21.0312 34.9688 21.2344C34.8177 21.4375 34.7422 21.6562 34.7422 21.8906H33.2969C33.2969 21.5885 33.375 21.2891 33.5312 20.9922C33.6875 20.6953 33.9115 20.4271 34.2031 20.1875C34.5 19.9427 34.8542 19.75 35.2656 19.6094C35.6823 19.4635 36.1458 19.3906 36.6562 19.3906C37.2708 19.3906 37.8125 19.4948 38.2812 19.7031C38.7552 19.9115 39.125 20.2266 39.3906 20.6484C39.6615 21.0651 39.7969 21.5885 39.7969 22.2188V26.1562C39.7969 26.4375 39.8203 26.737 39.8672 27.0547C39.9193 27.3724 39.9948 27.6458 40.0938 27.875V28H38.5859C38.513 27.8333 38.4557 27.612 38.4141 27.3359C38.3724 27.0547 38.3516 26.7943 38.3516 26.5547ZM38.6016 22.875L38.6172 23.8906H37.1562C36.7448 23.8906 36.3776 23.9245 36.0547 23.9922C35.7318 24.0547 35.4609 24.151 35.2422 24.2812C35.0234 24.4115 34.8568 24.5755 34.7422 24.7734C34.6276 24.9661 34.5703 25.1927 34.5703 25.4531C34.5703 25.7188 34.6302 25.9609 34.75 26.1797C34.8698 26.3984 35.0495 26.5729 35.2891 26.7031C35.5339 26.8281 35.8333 26.8906 36.1875 26.8906C36.6302 26.8906 37.0208 26.7969 37.3594 26.6094C37.6979 26.4219 37.9661 26.1927 38.1641 25.9219C38.3672 25.651 38.4766 25.388 38.4922 25.1328L39.1094 25.8281C39.0729 26.0469 38.974 26.2891 38.8125 26.5547C38.651 26.8203 38.4349 27.0755 38.1641 27.3203C37.8984 27.5599 37.5807 27.7604 37.2109 27.9219C36.8464 28.0781 36.4349 28.1562 35.9766 28.1562C35.4036 28.1562 34.901 28.0443 34.4688 27.8203C34.0417 27.5964 33.7083 27.2969 33.4688 26.9219C33.2344 26.5417 33.1172 26.1172 33.1172 25.6484C33.1172 25.1953 33.2057 24.7969 33.3828 24.4531C33.5599 24.1042 33.8151 23.8151 34.1484 23.5859C34.4818 23.3516 34.8828 23.1745 35.3516 23.0547C35.8203 22.9349 36.3438 22.875 36.9219 22.875H38.6016ZM43.5078 21.2266V28H42.0547V19.5469H43.4297L43.5078 21.2266ZM43.2109 23.4531L42.5391 23.4297C42.5443 22.8516 42.6198 22.3177 42.7656 21.8281C42.9115 21.3333 43.1276 20.9036 43.4141 20.5391C43.7005 20.1745 44.0573 19.8932 44.4844 19.6953C44.9115 19.4922 45.4062 19.3906 45.9688 19.3906C46.3646 19.3906 46.7292 19.4479 47.0625 19.5625C47.3958 19.6719 47.6849 19.8464 47.9297 20.0859C48.1745 20.3255 48.3646 20.6328 48.5 21.0078C48.6354 21.3828 48.7031 21.8359 48.7031 22.3672V28H47.2578V22.4375C47.2578 21.9948 47.1823 21.6406 47.0312 21.375C46.8854 21.1094 46.6771 20.9167 46.4062 20.7969C46.1354 20.6719 45.8177 20.6094 45.4531 20.6094C45.026 20.6094 44.6693 20.6849 44.3828 20.8359C44.0964 20.987 43.8672 21.1953 43.6953 21.4609C43.5234 21.7266 43.3984 22.0312 43.3203 22.375C43.2474 22.7135 43.2109 23.0729 43.2109 23.4531ZM48.6875 22.6562L47.7188 22.9531C47.724 22.4896 47.7995 22.0443 47.9453 21.6172C48.0964 21.1901 48.3125 20.8099 48.5938 20.4766C48.8802 20.1432 49.2318 19.8802 49.6484 19.6875C50.0651 19.4896 50.5417 19.3906 51.0781 19.3906C51.5312 19.3906 51.9323 19.4505 52.2812 19.5703C52.6354 19.6901 52.9323 19.875 53.1719 20.125C53.4167 20.3698 53.6016 20.6849 53.7266 21.0703C53.8516 21.4557 53.9141 21.9141 53.9141 22.4453V28H52.4609V22.4297C52.4609 21.9557 52.3854 21.5885 52.2344 21.3281C52.0885 21.0625 51.8802 20.8776 51.6094 20.7734C51.3438 20.6641 51.026 20.6094 50.6562 20.6094C50.3385 20.6094 50.0573 20.6641 49.8125 20.7734C49.5677 20.8828 49.362 21.0339 49.1953 21.2266C49.0286 21.4141 48.901 21.6302 48.8125 21.875C48.7292 22.1198 48.6875 22.3802 48.6875 22.6562ZM61.4297 26.3594V16H62.8828V28H61.5547L61.4297 26.3594ZM55.7422 23.8672V23.7031C55.7422 23.0573 55.8203 22.4714 55.9766 21.9453C56.138 21.4141 56.3646 20.9583 56.6562 20.5781C56.9531 20.1979 57.3047 19.9062 57.7109 19.7031C58.1224 19.4948 58.5807 19.3906 59.0859 19.3906C59.6172 19.3906 60.0807 19.4844 60.4766 19.6719C60.8776 19.8542 61.2161 20.1224 61.4922 20.4766C61.7734 20.8255 61.9948 21.2474 62.1562 21.7422C62.3177 22.237 62.4297 22.7969 62.4922 23.4219V24.1406C62.4349 24.7604 62.3229 25.3177 62.1562 25.8125C61.9948 26.3073 61.7734 26.7292 61.4922 27.0781C61.2161 27.4271 60.8776 27.6953 60.4766 27.8828C60.0755 28.0651 59.6068 28.1562 59.0703 28.1562C58.5755 28.1562 58.1224 28.0495 57.7109 27.8359C57.3047 27.6224 56.9531 27.3229 56.6562 26.9375C56.3646 26.5521 56.138 26.099 55.9766 25.5781C55.8203 25.0521 55.7422 24.4818 55.7422 23.8672ZM57.1953 23.7031V23.8672C57.1953 24.2891 57.237 24.6849 57.3203 25.0547C57.4089 25.4245 57.5443 25.75 57.7266 26.0312C57.9089 26.3125 58.1406 26.5339 58.4219 26.6953C58.7031 26.8516 59.0391 26.9297 59.4297 26.9297C59.9089 26.9297 60.3021 26.8281 60.6094 26.625C60.9219 26.4219 61.1719 26.1536 61.3594 25.8203C61.5469 25.487 61.6927 25.125 61.7969 24.7344V22.8516C61.7344 22.5651 61.6432 22.2891 61.5234 22.0234C61.4089 21.7526 61.2578 21.513 61.0703 21.3047C60.888 21.0911 60.6615 20.9219 60.3906 20.7969C60.125 20.6719 59.8099 20.6094 59.4453 20.6094C59.0495 20.6094 58.7083 20.6927 58.4219 20.8594C58.1406 21.0208 57.9089 21.2448 57.7266 21.5312C57.5443 21.8125 57.4089 22.1406 57.3203 22.5156C57.237 22.8854 57.1953 23.2812 57.1953 23.7031ZM66.7031 19.5469V28H65.25V19.5469H66.7031ZM65.1406 17.3047C65.1406 17.0703 65.2109 16.8724 65.3516 16.7109C65.4974 16.5495 65.7109 16.4688 65.9922 16.4688C66.2682 16.4688 66.4792 16.5495 66.625 16.7109C66.776 16.8724 66.8516 17.0703 66.8516 17.3047C66.8516 17.5286 66.776 17.7214 66.625 17.8828C66.4792 18.0391 66.2682 18.1172 65.9922 18.1172C65.7109 18.1172 65.4974 18.0391 65.3516 17.8828C65.2109 17.7214 65.1406 17.5286 65.1406 17.3047ZM70.4766 16V28H69.0234V16H70.4766ZM75.6406 19.5469L71.9531 23.4922L69.8906 25.6328L69.7734 24.0938L71.25 22.3281L73.875 19.5469H75.6406ZM74.3203 28L71.3047 23.9688L72.0547 22.6797L76.0234 28H74.3203ZM82.1172 26.5547V22.2031C82.1172 21.8698 82.0495 21.5807 81.9141 21.3359C81.7839 21.0859 81.5859 20.8932 81.3203 20.7578C81.0547 20.6224 80.7266 20.5547 80.3359 20.5547C79.9714 20.5547 79.651 20.6172 79.375 20.7422C79.1042 20.8672 78.8906 21.0312 78.7344 21.2344C78.5833 21.4375 78.5078 21.6562 78.5078 21.8906H77.0625C77.0625 21.5885 77.1406 21.2891 77.2969 20.9922C77.4531 20.6953 77.6771 20.4271 77.9688 20.1875C78.2656 19.9427 78.6198 19.75 79.0312 19.6094C79.4479 19.4635 79.9115 19.3906 80.4219 19.3906C81.0365 19.3906 81.5781 19.4948 82.0469 19.7031C82.5208 19.9115 82.8906 20.2266 83.1562 20.6484C83.4271 21.0651 83.5625 21.5885 83.5625 22.2188V26.1562C83.5625 26.4375 83.5859 26.737 83.6328 27.0547C83.6849 27.3724 83.7604 27.6458 83.8594 27.875V28H82.3516C82.2786 27.8333 82.2214 27.612 82.1797 27.3359C82.138 27.0547 82.1172 26.7943 82.1172 26.5547ZM82.3672 22.875L82.3828 23.8906H80.9219C80.5104 23.8906 80.1432 23.9245 79.8203 23.9922C79.4974 24.0547 79.2266 24.151 79.0078 24.2812C78.7891 24.4115 78.6224 24.5755 78.5078 24.7734C78.3932 24.9661 78.3359 25.1927 78.3359 25.4531C78.3359 25.7188 78.3958 25.9609 78.5156 26.1797C78.6354 26.3984 78.8151 26.5729 79.0547 26.7031C79.2995 26.8281 79.599 26.8906 79.9531 26.8906C80.3958 26.8906 80.7865 26.7969 81.125 26.6094C81.4635 26.4219 81.7318 26.1927 81.9297 25.9219C82.1328 25.651 82.2422 25.388 82.2578 25.1328L82.875 25.8281C82.8385 26.0469 82.7396 26.2891 82.5781 26.5547C82.4167 26.8203 82.2005 27.0755 81.9297 27.3203C81.6641 27.5599 81.3464 27.7604 80.9766 27.9219C80.612 28.0781 80.2005 28.1562 79.7422 28.1562C79.1693 28.1562 78.6667 28.0443 78.2344 27.8203C77.8073 27.5964 77.474 27.2969 77.2344 26.9219C77 26.5417 76.8828 26.1172 76.8828 25.6484C76.8828 25.1953 76.9714 24.7969 77.1484 24.4531C77.3255 24.1042 77.5807 23.8151 77.9141 23.5859C78.2474 23.3516 78.6484 23.1745 79.1172 23.0547C79.5859 22.9349 80.1094 22.875 80.6875 22.875H82.3672ZM87.4062 16V28H85.9531V16H87.4062ZM94.8984 26.0469V19.5469H96.3516V28H94.9688L94.8984 26.0469ZM95.1719 24.2656L95.7734 24.25C95.7734 24.8125 95.7135 25.3333 95.5938 25.8125C95.4792 26.2865 95.2917 26.6979 95.0312 27.0469C94.7708 27.3958 94.4297 27.6693 94.0078 27.8672C93.5859 28.0599 93.0729 28.1562 92.4688 28.1562C92.0573 28.1562 91.6797 28.0964 91.3359 27.9766C90.9974 27.8568 90.7057 27.6719 90.4609 27.4219C90.2161 27.1719 90.026 26.8464 89.8906 26.4453C89.7604 26.0443 89.6953 25.5625 89.6953 25V19.5469H91.1406V25.0156C91.1406 25.3958 91.1823 25.7109 91.2656 25.9609C91.3542 26.2057 91.4714 26.401 91.6172 26.5469C91.7682 26.6875 91.9349 26.7865 92.1172 26.8438C92.3047 26.901 92.4974 26.9297 92.6953 26.9297C93.3099 26.9297 93.7969 26.8125 94.1562 26.5781C94.5156 26.3385 94.7734 26.0182 94.9297 25.6172C95.0911 25.2109 95.1719 24.7604 95.1719 24.2656ZM111.016 24.0703C110.995 24.5495 110.922 25.0312 110.797 25.5156C110.672 25.9948 110.484 26.4349 110.234 26.8359C109.984 27.237 109.659 27.5599 109.258 27.8047C108.862 28.0443 108.383 28.1641 107.82 28.1641C107.461 28.1641 107.146 28.1016 106.875 27.9766C106.609 27.8464 106.391 27.6615 106.219 27.4219C106.052 27.1823 105.935 26.8932 105.867 26.5547C105.805 26.2161 105.794 25.8385 105.836 25.4219L106.234 21.0938H107.383L106.984 25.4219C106.953 25.8021 106.961 26.112 107.008 26.3516C107.06 26.5911 107.138 26.776 107.242 26.9062C107.346 27.0312 107.464 27.1172 107.594 27.1641C107.729 27.2109 107.859 27.2344 107.984 27.2344C108.297 27.2344 108.576 27.1536 108.82 26.9922C109.065 26.8255 109.271 26.599 109.438 26.3125C109.609 26.0208 109.742 25.6849 109.836 25.3047C109.93 24.9193 109.987 24.5078 110.008 24.0703C110.044 23.2943 110.008 22.5807 109.898 21.9297C109.794 21.2786 109.615 20.7005 109.359 20.1953C109.109 19.6901 108.781 19.263 108.375 18.9141C107.969 18.5651 107.484 18.2995 106.922 18.1172C106.359 17.9349 105.716 17.8438 104.992 17.8438C104.336 17.8438 103.729 17.9453 103.172 18.1484C102.62 18.3464 102.122 18.6328 101.68 19.0078C101.242 19.3828 100.865 19.8333 100.547 20.3594C100.234 20.8854 99.987 21.4792 99.8047 22.1406C99.6276 22.7969 99.5234 23.5052 99.4922 24.2656C99.4557 25.0469 99.4974 25.7656 99.6172 26.4219C99.737 27.0729 99.9297 27.6536 100.195 28.1641C100.466 28.6797 100.807 29.1146 101.219 29.4688C101.63 29.8281 102.107 30.099 102.648 30.2812C103.19 30.4688 103.794 30.5625 104.461 30.5625C104.919 30.5625 105.383 30.5078 105.852 30.3984C106.326 30.2891 106.721 30.1406 107.039 29.9531L107.336 30.8438C106.971 31.0781 106.516 31.2526 105.969 31.3672C105.427 31.4818 104.914 31.5391 104.43 31.5391C103.638 31.5391 102.914 31.4297 102.258 31.2109C101.607 30.9974 101.029 30.6823 100.523 30.2656C100.023 29.8542 99.6068 29.3516 99.2734 28.7578C98.9401 28.1693 98.6953 27.4974 98.5391 26.7422C98.3828 25.987 98.3229 25.1615 98.3594 24.2656C98.3958 23.4115 98.5234 22.6068 98.7422 21.8516C98.9661 21.0964 99.2708 20.4115 99.6562 19.7969C100.042 19.1823 100.5 18.6536 101.031 18.2109C101.568 17.763 102.169 17.4193 102.836 17.1797C103.508 16.9401 104.237 16.8203 105.023 16.8203C105.826 16.8203 106.552 16.9297 107.203 17.1484C107.854 17.3672 108.424 17.6823 108.914 18.0938C109.409 18.5052 109.818 19.0078 110.141 19.6016C110.464 20.1953 110.698 20.8672 110.844 21.6172C110.995 22.3672 111.052 23.1849 111.016 24.0703ZM102.992 24.7344C102.956 25.099 102.956 25.4245 102.992 25.7109C103.029 25.9974 103.099 26.2396 103.203 26.4375C103.307 26.6354 103.443 26.7865 103.609 26.8906C103.781 26.9896 103.982 27.0391 104.211 27.0391C104.362 27.0391 104.521 27.0026 104.688 26.9297C104.854 26.8516 105.018 26.7318 105.18 26.5703C105.341 26.4089 105.492 26.1979 105.633 25.9375C105.773 25.6771 105.891 25.3646 105.984 25L106.5 25.5625C106.38 25.9896 106.224 26.3646 106.031 26.6875C105.844 27.0104 105.633 27.2812 105.398 27.5C105.164 27.7188 104.914 27.8854 104.648 28C104.388 28.1094 104.122 28.1641 103.852 28.1641C103.471 28.1641 103.138 28.0833 102.852 27.9219C102.565 27.7552 102.333 27.5208 102.156 27.2188C101.979 26.9167 101.854 26.5573 101.781 26.1406C101.714 25.7188 101.703 25.25 101.75 24.7344C101.797 24.1875 101.893 23.6823 102.039 23.2188C102.185 22.7552 102.365 22.3411 102.578 21.9766C102.797 21.612 103.042 21.3021 103.312 21.0469C103.589 20.7917 103.88 20.599 104.188 20.4688C104.495 20.3333 104.81 20.2656 105.133 20.2656C105.695 20.2656 106.138 20.349 106.461 20.5156C106.784 20.6771 107.091 20.8698 107.383 21.0938L106.719 21.8672C106.568 21.7214 106.37 21.5859 106.125 21.4609C105.88 21.3359 105.591 21.2734 105.258 21.2734C104.971 21.2734 104.703 21.3464 104.453 21.4922C104.203 21.638 103.977 21.8568 103.773 22.1484C103.576 22.4401 103.409 22.8021 103.273 23.2344C103.138 23.6615 103.044 24.1615 102.992 24.7344ZM115.305 27.125L117.656 19.5469H119.203L115.812 29.3047C115.734 29.513 115.63 29.737 115.5 29.9766C115.375 30.2214 115.214 30.4531 115.016 30.6719C114.818 30.8906 114.578 31.0677 114.297 31.2031C114.021 31.3438 113.69 31.4141 113.305 31.4141C113.19 31.4141 113.044 31.3984 112.867 31.3672C112.69 31.3359 112.565 31.3099 112.492 31.2891L112.484 30.1172C112.526 30.1224 112.591 30.1276 112.68 30.1328C112.773 30.1432 112.839 30.1484 112.875 30.1484C113.203 30.1484 113.482 30.1042 113.711 30.0156C113.94 29.9323 114.133 29.7891 114.289 29.5859C114.451 29.388 114.589 29.1146 114.703 28.7656L115.305 27.125ZM113.578 19.5469L115.773 26.1094L116.148 27.6328L115.109 28.1641L112 19.5469H113.578ZM125.367 26.5547V22.2031C125.367 21.8698 125.299 21.5807 125.164 21.3359C125.034 21.0859 124.836 20.8932 124.57 20.7578C124.305 20.6224 123.977 20.5547 123.586 20.5547C123.221 20.5547 122.901 20.6172 122.625 20.7422C122.354 20.8672 122.141 21.0312 121.984 21.2344C121.833 21.4375 121.758 21.6562 121.758 21.8906H120.312C120.312 21.5885 120.391 21.2891 120.547 20.9922C120.703 20.6953 120.927 20.4271 121.219 20.1875C121.516 19.9427 121.87 19.75 122.281 19.6094C122.698 19.4635 123.161 19.3906 123.672 19.3906C124.286 19.3906 124.828 19.4948 125.297 19.7031C125.771 19.9115 126.141 20.2266 126.406 20.6484C126.677 21.0651 126.812 21.5885 126.812 22.2188V26.1562C126.812 26.4375 126.836 26.737 126.883 27.0547C126.935 27.3724 127.01 27.6458 127.109 27.875V28H125.602C125.529 27.8333 125.471 27.612 125.43 27.3359C125.388 27.0547 125.367 26.7943 125.367 26.5547ZM125.617 22.875L125.633 23.8906H124.172C123.76 23.8906 123.393 23.9245 123.07 23.9922C122.747 24.0547 122.477 24.151 122.258 24.2812C122.039 24.4115 121.872 24.5755 121.758 24.7734C121.643 24.9661 121.586 25.1927 121.586 25.4531C121.586 25.7188 121.646 25.9609 121.766 26.1797C121.885 26.3984 122.065 26.5729 122.305 26.7031C122.549 26.8281 122.849 26.8906 123.203 26.8906C123.646 26.8906 124.036 26.7969 124.375 26.6094C124.714 26.4219 124.982 26.1927 125.18 25.9219C125.383 25.651 125.492 25.388 125.508 25.1328L126.125 25.8281C126.089 26.0469 125.99 26.2891 125.828 26.5547C125.667 26.8203 125.451 27.0755 125.18 27.3203C124.914 27.5599 124.596 27.7604 124.227 27.9219C123.862 28.0781 123.451 28.1562 122.992 28.1562C122.419 28.1562 121.917 28.0443 121.484 27.8203C121.057 27.5964 120.724 27.2969 120.484 26.9219C120.25 26.5417 120.133 26.1172 120.133 25.6484C120.133 25.1953 120.221 24.7969 120.398 24.4531C120.576 24.1042 120.831 23.8151 121.164 23.5859C121.497 23.3516 121.898 23.1745 122.367 23.0547C122.836 22.9349 123.359 22.875 123.938 22.875H125.617ZM130.531 16V28H129.086V16H130.531ZM130.188 23.4531L129.586 23.4297C129.591 22.8516 129.677 22.3177 129.844 21.8281C130.01 21.3333 130.245 20.9036 130.547 20.5391C130.849 20.1745 131.208 19.8932 131.625 19.6953C132.047 19.4922 132.513 19.3906 133.023 19.3906C133.44 19.3906 133.815 19.4479 134.148 19.5625C134.482 19.6719 134.766 19.849 135 20.0938C135.24 20.3385 135.422 20.6562 135.547 21.0469C135.672 21.4323 135.734 21.9036 135.734 22.4609V28H134.281V22.4453C134.281 22.0026 134.216 21.6484 134.086 21.3828C133.956 21.112 133.766 20.9167 133.516 20.7969C133.266 20.6719 132.958 20.6094 132.594 20.6094C132.234 20.6094 131.906 20.6849 131.609 20.8359C131.318 20.987 131.065 21.1953 130.852 21.4609C130.643 21.7266 130.479 22.0312 130.359 22.375C130.245 22.7135 130.188 23.0729 130.188 23.4531ZM137.516 23.8672V23.6875C137.516 23.0781 137.604 22.513 137.781 21.9922C137.958 21.4661 138.214 21.0104 138.547 20.625C138.88 20.2344 139.284 19.9323 139.758 19.7188C140.232 19.5 140.763 19.3906 141.352 19.3906C141.945 19.3906 142.479 19.5 142.953 19.7188C143.432 19.9323 143.839 20.2344 144.172 20.625C144.51 21.0104 144.768 21.4661 144.945 21.9922C145.122 22.513 145.211 23.0781 145.211 23.6875V23.8672C145.211 24.4766 145.122 25.0417 144.945 25.5625C144.768 26.0833 144.51 26.5391 144.172 26.9297C143.839 27.3151 143.435 27.6172 142.961 27.8359C142.492 28.0495 141.961 28.1562 141.367 28.1562C140.773 28.1562 140.24 28.0495 139.766 27.8359C139.292 27.6172 138.885 27.3151 138.547 26.9297C138.214 26.5391 137.958 26.0833 137.781 25.5625C137.604 25.0417 137.516 24.4766 137.516 23.8672ZM138.961 23.6875V23.8672C138.961 24.2891 139.01 24.6875 139.109 25.0625C139.208 25.4323 139.357 25.7604 139.555 26.0469C139.758 26.3333 140.01 26.5599 140.312 26.7266C140.615 26.888 140.966 26.9688 141.367 26.9688C141.763 26.9688 142.109 26.888 142.406 26.7266C142.708 26.5599 142.958 26.3333 143.156 26.0469C143.354 25.7604 143.503 25.4323 143.602 25.0625C143.706 24.6875 143.758 24.2891 143.758 23.8672V23.6875C143.758 23.2708 143.706 22.8776 143.602 22.5078C143.503 22.1328 143.352 21.8021 143.148 21.5156C142.951 21.224 142.701 20.9948 142.398 20.8281C142.102 20.6615 141.753 20.5781 141.352 20.5781C140.956 20.5781 140.607 20.6615 140.305 20.8281C140.008 20.9948 139.758 21.224 139.555 21.5156C139.357 21.8021 139.208 22.1328 139.109 22.5078C139.01 22.8776 138.961 23.2708 138.961 23.6875ZM146.641 23.8672V23.6875C146.641 23.0781 146.729 22.513 146.906 21.9922C147.083 21.4661 147.339 21.0104 147.672 20.625C148.005 20.2344 148.409 19.9323 148.883 19.7188C149.357 19.5 149.888 19.3906 150.477 19.3906C151.07 19.3906 151.604 19.5 152.078 19.7188C152.557 19.9323 152.964 20.2344 153.297 20.625C153.635 21.0104 153.893 21.4661 154.07 21.9922C154.247 22.513 154.336 23.0781 154.336 23.6875V23.8672C154.336 24.4766 154.247 25.0417 154.07 25.5625C153.893 26.0833 153.635 26.5391 153.297 26.9297C152.964 27.3151 152.56 27.6172 152.086 27.8359C151.617 28.0495 151.086 28.1562 150.492 28.1562C149.898 28.1562 149.365 28.0495 148.891 27.8359C148.417 27.6172 148.01 27.3151 147.672 26.9297C147.339 26.5391 147.083 26.0833 146.906 25.5625C146.729 25.0417 146.641 24.4766 146.641 23.8672ZM148.086 23.6875V23.8672C148.086 24.2891 148.135 24.6875 148.234 25.0625C148.333 25.4323 148.482 25.7604 148.68 26.0469C148.883 26.3333 149.135 26.5599 149.438 26.7266C149.74 26.888 150.091 26.9688 150.492 26.9688C150.888 26.9688 151.234 26.888 151.531 26.7266C151.833 26.5599 152.083 26.3333 152.281 26.0469C152.479 25.7604 152.628 25.4323 152.727 25.0625C152.831 24.6875 152.883 24.2891 152.883 23.8672V23.6875C152.883 23.2708 152.831 22.8776 152.727 22.5078C152.628 22.1328 152.477 21.8021 152.273 21.5156C152.076 21.224 151.826 20.9948 151.523 20.8281C151.227 20.6615 150.878 20.5781 150.477 20.5781C150.081 20.5781 149.732 20.6615 149.43 20.8281C149.133 20.9948 148.883 21.224 148.68 21.5156C148.482 21.8021 148.333 22.1328 148.234 22.5078C148.135 22.8776 148.086 23.2708 148.086 23.6875ZM156.172 27.2344C156.172 26.9896 156.247 26.7839 156.398 26.6172C156.555 26.4453 156.779 26.3594 157.07 26.3594C157.362 26.3594 157.583 26.4453 157.734 26.6172C157.891 26.7839 157.969 26.9896 157.969 27.2344C157.969 27.474 157.891 27.6771 157.734 27.8438C157.583 28.0104 157.362 28.0938 157.07 28.0938C156.779 28.0938 156.555 28.0104 156.398 27.8438C156.247 27.6771 156.172 27.474 156.172 27.2344ZM163.75 26.9688C164.094 26.9688 164.411 26.8984 164.703 26.7578C164.995 26.6172 165.234 26.4245 165.422 26.1797C165.609 25.9297 165.716 25.6458 165.742 25.3281H167.117C167.091 25.8281 166.922 26.2943 166.609 26.7266C166.302 27.1536 165.898 27.5 165.398 27.7656C164.898 28.026 164.349 28.1562 163.75 28.1562C163.115 28.1562 162.56 28.0443 162.086 27.8203C161.617 27.5964 161.227 27.2891 160.914 26.8984C160.607 26.5078 160.375 26.0599 160.219 25.5547C160.068 25.0443 159.992 24.5052 159.992 23.9375V23.6094C159.992 23.0417 160.068 22.5052 160.219 22C160.375 21.4896 160.607 21.0391 160.914 20.6484C161.227 20.2578 161.617 19.9505 162.086 19.7266C162.56 19.5026 163.115 19.3906 163.75 19.3906C164.411 19.3906 164.99 19.526 165.484 19.7969C165.979 20.0625 166.367 20.4271 166.648 20.8906C166.935 21.349 167.091 21.8698 167.117 22.4531H165.742C165.716 22.1042 165.617 21.7891 165.445 21.5078C165.279 21.2266 165.049 21.0026 164.758 20.8359C164.471 20.6641 164.135 20.5781 163.75 20.5781C163.307 20.5781 162.935 20.6667 162.633 20.8438C162.336 21.0156 162.099 21.25 161.922 21.5469C161.75 21.8385 161.625 22.1641 161.547 22.5234C161.474 22.8776 161.438 23.2396 161.438 23.6094V23.9375C161.438 24.3073 161.474 24.6719 161.547 25.0312C161.62 25.3906 161.742 25.7161 161.914 26.0078C162.091 26.2995 162.328 26.5339 162.625 26.7109C162.927 26.8828 163.302 26.9688 163.75 26.9688ZM168.359 23.8672V23.6875C168.359 23.0781 168.448 22.513 168.625 21.9922C168.802 21.4661 169.057 21.0104 169.391 20.625C169.724 20.2344 170.128 19.9323 170.602 19.7188C171.076 19.5 171.607 19.3906 172.195 19.3906C172.789 19.3906 173.323 19.5 173.797 19.7188C174.276 19.9323 174.682 20.2344 175.016 20.625C175.354 21.0104 175.612 21.4661 175.789 21.9922C175.966 22.513 176.055 23.0781 176.055 23.6875V23.8672C176.055 24.4766 175.966 25.0417 175.789 25.5625C175.612 26.0833 175.354 26.5391 175.016 26.9297C174.682 27.3151 174.279 27.6172 173.805 27.8359C173.336 28.0495 172.805 28.1562 172.211 28.1562C171.617 28.1562 171.083 28.0495 170.609 27.8359C170.135 27.6172 169.729 27.3151 169.391 26.9297C169.057 26.5391 168.802 26.0833 168.625 25.5625C168.448 25.0417 168.359 24.4766 168.359 23.8672ZM169.805 23.6875V23.8672C169.805 24.2891 169.854 24.6875 169.953 25.0625C170.052 25.4323 170.201 25.7604 170.398 26.0469C170.602 26.3333 170.854 26.5599 171.156 26.7266C171.458 26.888 171.81 26.9688 172.211 26.9688C172.607 26.9688 172.953 26.888 173.25 26.7266C173.552 26.5599 173.802 26.3333 174 26.0469C174.198 25.7604 174.346 25.4323 174.445 25.0625C174.549 24.6875 174.602 24.2891 174.602 23.8672V23.6875C174.602 23.2708 174.549 22.8776 174.445 22.5078C174.346 22.1328 174.195 21.8021 173.992 21.5156C173.794 21.224 173.544 20.9948 173.242 20.8281C172.945 20.6615 172.596 20.5781 172.195 20.5781C171.799 20.5781 171.451 20.6615 171.148 20.8281C170.852 20.9948 170.602 21.224 170.398 21.5156C170.201 21.8021 170.052 22.1328 169.953 22.5078C169.854 22.8776 169.805 23.2708 169.805 23.6875ZM179.305 21.2266V28H177.852V19.5469H179.227L179.305 21.2266ZM179.008 23.4531L178.336 23.4297C178.341 22.8516 178.417 22.3177 178.562 21.8281C178.708 21.3333 178.924 20.9036 179.211 20.5391C179.497 20.1745 179.854 19.8932 180.281 19.6953C180.708 19.4922 181.203 19.3906 181.766 19.3906C182.161 19.3906 182.526 19.4479 182.859 19.5625C183.193 19.6719 183.482 19.8464 183.727 20.0859C183.971 20.3255 184.161 20.6328 184.297 21.0078C184.432 21.3828 184.5 21.8359 184.5 22.3672V28H183.055V22.4375C183.055 21.9948 182.979 21.6406 182.828 21.375C182.682 21.1094 182.474 20.9167 182.203 20.7969C181.932 20.6719 181.615 20.6094 181.25 20.6094C180.823 20.6094 180.466 20.6849 180.18 20.8359C179.893 20.987 179.664 21.1953 179.492 21.4609C179.32 21.7266 179.195 22.0312 179.117 22.375C179.044 22.7135 179.008 23.0729 179.008 23.4531ZM184.484 22.6562L183.516 22.9531C183.521 22.4896 183.596 22.0443 183.742 21.6172C183.893 21.1901 184.109 20.8099 184.391 20.4766C184.677 20.1432 185.029 19.8802 185.445 19.6875C185.862 19.4896 186.339 19.3906 186.875 19.3906C187.328 19.3906 187.729 19.4505 188.078 19.5703C188.432 19.6901 188.729 19.875 188.969 20.125C189.214 20.3698 189.398 20.6849 189.523 21.0703C189.648 21.4557 189.711 21.9141 189.711 22.4453V28H188.258V22.4297C188.258 21.9557 188.182 21.5885 188.031 21.3281C187.885 21.0625 187.677 20.8776 187.406 20.7734C187.141 20.6641 186.823 20.6094 186.453 20.6094C186.135 20.6094 185.854 20.6641 185.609 20.7734C185.365 20.8828 185.159 21.0339 184.992 21.2266C184.826 21.4141 184.698 21.6302 184.609 21.875C184.526 22.1198 184.484 22.3802 184.484 22.6562Z" fill="#848484"/>
<path d="M523.75 23L526.58 25.83L532.25 20.17" stroke="#FBA04B" stroke-width="1.5" stroke-linecap="round" stroke-linejoin="round"/>
</svg>
